<?xml version="1.0" encoding="UTF-8"?>
<svg id="Capa_2" data-name="Capa 2" xmlns="http://www.w3.org/2000/svg" viewBox="0 0 1022.1 1022.1">
  <defs>
    <style>
      .cls-1 {
        fill: #000;
        stroke-width: 0px;
      }
    </style>
  </defs>
  <g id="Capa_1-2" data-name="Capa 1">
    <path class="cls-1" d="M971.97,431.98L590.13,50.13l-29.66-29.66c-27.3-27.3-71.55-27.3-98.84,0l-29.66,29.66L50.13,431.98l-29.66,29.66c-27.3,27.3-27.3,71.55,0,98.85l29.66,29.66,381.84,381.84,29.66,29.66c27.3,27.3,71.55,27.3,98.84,0l29.66-29.66,381.84-381.84,29.66-29.66c27.3-27.3,27.3-71.55,0-98.85l-29.66-29.66ZM511.05,781.05c0-149.12-120.89-270-270-270,149.11,0,270-120.88,270-270.01,0,149.12,120.89,270.01,270,270.01-149.11,0-270,120.88-270,270Z"/>
  </g>
</svg>